<svg xmlns="http://www.w3.org/2000/svg" version="1.1" xmlns:xlink="http://www.w3.org/1999/xlink" xmlns:svgjs="http://svgjs.dev/svgjs" width="2000" height="2250" viewBox="0 0 2000 2250"><g transform="matrix(1,0,0,1,0,0)"><svg viewBox="0 0 320 360" data-background-color="#ffffff" preserveAspectRatio="xMidYMid meet" height="2250" width="2000" xmlns="http://www.w3.org/2000/svg" xmlns:xlink="http://www.w3.org/1999/xlink"><g id="tight-bounds" transform="matrix(1,0,0,1,0,0)"><svg viewBox="0 0 320 360" height="360" width="320"><g><svg></svg></g><g><svg viewBox="0 0 320 360" height="360" width="320"><g><path xmlns="http://www.w3.org/2000/svg" d="M297.491 100.645c-12.426-21.51-112.674-79.355-137.491-79.355-24.817 0-125.028 57.845-137.491 79.355-11.591 20.02-11.591 138.726 0 158.746 12.463 21.474 112.674 79.319 137.491 79.319 24.817 0 125.064-57.845 137.491-79.355 11.591-20.02 11.591-138.69 0-158.71zM309.481 93.705c-14.461-24.998-119.469-86.295-149.481-86.295-30.012 0-135.02 61.297-149.481 86.295-14.025 24.199-14.025 148.391 0 172.59 14.461 24.998 119.469 86.295 149.481 86.295 30.012 0 135.02-61.297 149.481-86.259 14.025-24.235 14.025-148.427 0-172.626zM300.906 261.353c-12.753 22.055-115.472 81.317-140.906 81.318-25.434 0-128.153-59.298-140.906-81.354-11.881-20.529-11.881-142.178 0-162.707 12.753-22.019 115.472-81.281 140.906-81.281 25.434 0 128.153 59.298 140.906 81.318 11.881 20.529 11.881 142.178 0 162.706z" fill="#f5ba41" fill-rule="nonzero" stroke="none" stroke-width="1" stroke-linecap="butt" stroke-linejoin="miter" stroke-miterlimit="10" stroke-dasharray="" stroke-dashoffset="0" font-family="none" font-weight="none" font-size="none" text-anchor="none" style="mix-blend-mode: normal" data-fill-palette-color="tertiary"></path></g><g transform="matrix(1,0,0,1,48,104.63778162911612)"><svg viewBox="0 0 224 150.72443674176776" height="150.72443674176776" width="224"><g><svg viewBox="0 0 224 150.72443674176776" height="150.72443674176776" width="224"><g><svg viewBox="0 0 224 150.72443674176776" height="150.72443674176776" width="224"><g><svg viewBox="0 0 224 150.72443674176776" height="150.72443674176776" width="224"><g id="textblocktransform"><svg viewBox="0 0 224 150.72443674176776" height="150.72443674176776" width="224" id="textblock"><g><svg viewBox="0 0 224 150.72443674176776" height="150.72443674176776" width="224"><g transform="matrix(1,0,0,1,0,0)"><svg width="224" viewBox="3.690000057220459 -36.22999954223633 56.34000015258789 37.90999984741211" height="150.72443674176776" data-palette-color="#ffffff"><path d="M24.19-14.43L24.19-32.71Q24.39-33.52 24.54-33.89 24.68-34.25 25.17-34.38L25.17-34.38 31.49-35.86Q31.79-35.96 32.13-35.96L32.13-35.96Q32.45-35.96 32.59-35.74 32.74-35.52 32.74-34.91L32.74-34.91Q32.59-34.33 32.5-33.12 32.4-31.91 32.35-30.47 32.3-29.03 32.28-27.58 32.25-26.12 32.25-25.05L32.25-25.05 32.25-23.71Q32.25-22.19 32.23-20.41 32.2-18.63 32.17-16.8 32.13-14.97 32.08-13.18 32.03-11.4 31.98-9.84L31.98-9.84 31.84-5.66Q31.81-5.54 31.81-5.44 31.81-5.35 31.81-5.25L31.81-5.25 31.81-4.88Q31.81-4.47 31.82-4.19 31.84-3.91 31.84-3.69L31.84-3.69Q31.84-3.44 31.8-3.25 31.76-3.05 31.62-2.87 31.47-2.69 31.21-2.49 30.96-2.29 30.52-2L30.52-2Q30.27-1.83 29.71-1.5 29.15-1.17 28.47-0.76 27.78-0.34 27.05 0.1 26.32 0.54 25.71 0.89 25.1 1.25 24.72 1.46 24.34 1.68 24.34 1.68L24.34 1.68 13.01-15.75 11.99-1.46Q11.96-1.27 11.9-1.05 11.84-0.83 11.57-0.71L11.57-0.71Q11.35-0.61 10.82-0.4 10.28-0.2 9.56 0.07 8.84 0.34 8.04 0.62 7.25 0.9 6.54 1.14 5.83 1.37 5.29 1.51 4.74 1.66 4.54 1.66L4.54 1.66Q4.17 1.66 3.93 1.46 3.69 1.27 3.69 0.76L3.69 0.76Q3.93-2.29 4.25-5.9 4.57-9.5 4.86-13.28 5.15-17.07 5.41-20.84 5.66-24.61 5.83-28L5.83-28Q5.83-28.1 5.53-28.65 5.22-29.2 4.85-29.85 4.47-30.49 4.16-31.07 3.86-31.64 3.86-31.79L3.86-31.79Q3.86-31.96 4.04-32.1 4.22-32.25 4.64-32.5L4.64-32.5 11.16-36.18Q11.23-36.18 11.36-36.21 11.5-36.23 11.6-36.23L11.6-36.23Q11.87-36.23 12.02-36.17 12.18-36.11 12.35-35.79L12.35-35.79 24.19-14.43ZM37.94-0.37L37.52-9.08Q37.52-9.11 37.51-9.13 37.5-9.16 37.5-9.18L37.5-9.18Q37.5-9.59 37.94-9.59L37.94-9.59Q38.16-9.59 38.43-9.38L38.43-9.38Q39.74-8.13 41.35-7.4 42.97-6.67 44.87-6.67L44.87-6.67Q45.38-6.67 46.04-6.77 46.7-6.88 47.29-7.14 47.87-7.4 48.28-7.81 48.68-8.23 48.68-8.86L48.68-8.86Q48.68-9.57 48.34-10.13 48-10.69 47.43-11.08L47.43-11.08Q47.21-11.23 46.77-11.57 46.34-11.91 45.77-12.35 45.21-12.79 44.6-13.29 43.99-13.79 43.44-14.25 42.89-14.7 42.45-15.06 42.01-15.43 41.79-15.63L41.79-15.63Q40.35-16.7 39.51-17.8 38.67-18.9 38.23-20.09 37.79-21.29 37.67-22.57 37.55-23.85 37.55-25.29L37.55-25.29Q37.55-27.44 38.57-29.37 39.6-31.3 41.46-32.73 43.33-34.16 45.94-35 48.56-35.84 51.76-35.84L51.76-35.84Q52.15-35.84 52.93-35.75 53.71-35.67 54.65-35.47 55.59-35.28 56.56-34.94 57.54-34.59 58.35-34.06L58.35-34.06Q58.62-33.86 58.77-33.67 58.93-33.47 58.98-33.06L58.98-33.06Q59.1-31.08 59.18-29.16 59.25-27.25 59.37-25.1L59.37-25.1Q59.37-24.68 59.2-24.55 59.03-24.41 58.76-24.41L58.76-24.41Q58.49-24.41 58.35-24.56L58.35-24.56Q57.64-25.27 56.88-25.95 56.13-26.64 55.3-27.16 54.47-27.69 53.53-28 52.59-28.32 51.49-28.32L51.49-28.32Q50.83-28.32 50.17-28.21 49.51-28.1 48.97-27.81 48.44-27.51 48.11-27 47.78-26.49 47.78-25.71L47.78-25.71Q47.78-24.88 47.98-24.27 48.19-23.66 49.02-23.12L49.02-23.12 54.88-19.14Q56.49-17.99 57.49-16.86 58.49-15.72 59.06-14.6 59.62-13.48 59.82-12.39 60.03-11.3 60.03-10.25L60.03-10.25Q60.03-8.54 59.47-7.03 58.91-5.52 57.93-4.24 56.96-2.95 55.65-1.94 54.34-0.93 52.85-0.21 51.36 0.51 49.77 0.89 48.17 1.27 46.63 1.27L46.63 1.27Q45.43 1.27 44.27 1.23 43.11 1.2 42.01 1.04 40.92 0.88 39.89 0.55 38.86 0.22 37.94-0.37L37.94-0.37Z" opacity="1" transform="matrix(1,0,0,1,0,0)" fill="#ffffff" class="wordmark-text-0" data-fill-palette-color="quaternary" id="text-0"></path></svg></g></svg></g></svg></g></svg></g><g></g></svg></g></svg></g></svg></g></svg></g><defs></defs></svg><rect width="320" height="360" fill="none" stroke="none" visibility="hidden"></rect></g></svg></g></svg>